<?xml version="1.0" encoding="utf-8"?>
<!-- Generator: Adobe Illustrator 23.1.1, SVG Export Plug-In . SVG Version: 6.00 Build 0)  -->
<svg version="1.1" xmlns="http://www.w3.org/2000/svg" xmlns:xlink="http://www.w3.org/1999/xlink" x="0px" y="0px"
	 viewBox="0 0 21 21" style="enable-background:new 0 0 21 21;" xml:space="preserve">
<style type="text/css">
	.st0{fill:#FFFFFF;}
	.st1{fill:url(#SVGID_1_);}
	.st2{fill:#51ADEE;}
	.st3{fill:#EF515D;}
	.st4{fill:none;stroke:#000000;stroke-miterlimit:10;}
	.st5{fill:none;stroke:#000000;stroke-width:2;stroke-linejoin:round;stroke-miterlimit:10;}
	.st6{fill:#2EFBA8;}
	.st7{fill:#FF2A64;}
	.st8{fill:#FF1D6B;}
	.st9{fill:#FF4157;}
	.st10{fill:#57B1CB;}
	.st11{fill:#367CFF;}
	.st12{fill:none;stroke:#000000;stroke-width:4;stroke-linecap:round;stroke-linejoin:round;stroke-miterlimit:10;}
	.st13{fill:none;stroke:#000000;stroke-width:5;stroke-linecap:round;stroke-linejoin:round;stroke-miterlimit:10;}
	.st14{fill:none;stroke:#000000;stroke-width:26.5149;stroke-linecap:round;stroke-linejoin:round;stroke-miterlimit:10;}
	.st15{fill:#E265B3;}
	.st16{fill:#FFE255;}
	.st17{fill:#24BBFD;}
	.st18{fill:#3BEDE6;}
	.st19{fill:#935FE1;}
	.st20{fill:#6449D5;}
	.st21{fill:#FEAA00;}
	.st22{fill:#E245B3;}
	.st23{fill:#009E55;}
	.st24{fill:#3F83F7;}
	.st25{fill:#DD4330;}
	.st26{fill:#3E82F7;}
	.st27{fill:#F6B500;}
	.st28{fill:url(#SVGID_2_);}
	.st29{fill:#B461A7;}
	.st30{fill:#FF5E44;}
	.st31{fill:#3FB9FA;}
	.st32{fill:#50BFC3;}
	.st33{fill:#3EE1B3;}
	.st34{fill:#FFC600;}
	.st35{fill:none;}
	.st36{fill:none;stroke:#000000;stroke-width:26;stroke-linecap:round;stroke-linejoin:round;stroke-miterlimit:10;}
	.st37{fill:none;stroke:#000000;stroke-width:29;stroke-linecap:round;stroke-linejoin:round;stroke-miterlimit:10;}
	.st38{clip-path:url(#SVGID_40_);}
	.st39{clip-path:url(#SVGID_42_);}
	.st40{fill:#FFD201;}
	.st41{fill:#3EB9FA;}
	.st42{fill:none;stroke:#FF8080;stroke-width:0.4934;stroke-miterlimit:10;}
	.st43{fill:none;stroke:#FF8080;stroke-width:3.1098;stroke-miterlimit:10;}
	.st44{fill:none;stroke:#8389FF;stroke-width:3.1098;stroke-miterlimit:10;}
	.st45{fill:none;stroke:#8389FF;stroke-width:35;stroke-linecap:round;stroke-linejoin:round;stroke-miterlimit:10;}
	.st46{fill:none;stroke:#000000;stroke-width:9;stroke-linejoin:round;stroke-miterlimit:10;}
	.st47{fill:none;stroke:#000000;stroke-width:4;stroke-linejoin:round;stroke-miterlimit:10;}
	.st48{fill:none;stroke:#000000;stroke-width:8;stroke-linejoin:round;stroke-miterlimit:10;}
	.st49{fill:url(#SVGID_49_);}
	.st50{fill:url(#SVGID_50_);}
	.st51{fill:#3EEBE6;}
	.st52{fill:url(#SVGID_51_);}
	.st53{fill:url(#SVGID_92_);}
	.st54{fill:url(#SVGID_93_);}
	.st55{fill:url(#SVGID_98_);}
	.st56{fill:none;stroke:#FF683E;stroke-linecap:round;stroke-linejoin:round;stroke-miterlimit:10;}
	.st57{fill:url(#SVGID_115_);}
	.st58{fill:url(#SVGID_116_);}
	.st59{fill:url(#SVGID_117_);}
	.st60{fill:url(#SVGID_118_);}
	.st61{fill:url(#SVGID_119_);}
	.st62{clip-path:url(#SVGID_125_);}
	.st63{fill:#F8F8F8;}
	.st64{fill:url(#SVGID_126_);}
	.st65{fill:url(#SVGID_127_);}
	.st66{fill:url(#SVGID_128_);}
	.st67{fill:url(#SVGID_133_);}
	.st68{fill:url(#SVGID_134_);}
	.st69{fill:url(#SVGID_135_);}
	.st70{opacity:0.18;}
	.st71{opacity:0.24;}
	
		.st72{opacity:0.24;fill:none;stroke:#000000;stroke-width:26.5149;stroke-linecap:round;stroke-linejoin:round;stroke-miterlimit:10;}
</style>
<g id="Layer_1">
	<g>
		<linearGradient id="SVGID_1_" gradientUnits="userSpaceOnUse" x1="15.0815" y1="0.4919" x2="6.2379" y2="19.8105">
			<stop  offset="0" style="stop-color:#FFD500"/>
			<stop  offset="0.2583" style="stop-color:#FF683E"/>
			<stop  offset="0.4985" style="stop-color:#FF1D6B"/>
			<stop  offset="0.7813" style="stop-color:#5D25CD"/>
			<stop  offset="1" style="stop-color:#3EB9FA"/>
		</linearGradient>
		<path class="st1" d="M5.92,2.24L2.24,5.92c-2.32,2.32-2.32,6.09,0,8.41l4.43,4.43c2.32,2.32,6.09,2.32,8.41,0l3.67-3.67
			c2.32-2.32,2.32-6.09,0-8.41l-4.43-4.43C12-0.08,8.24-0.08,5.92,2.24z"/>
		<path class="st0" d="M14.52,7.13c-1,0-1.94,0.39-2.65,1.1l-1.49,1.49c-0.64,0.64-0.64,1.69,0,2.33c0.64,0.64,1.69,0.64,2.33,0
			l1.49-1.49c0.11-0.11,0.23-0.13,0.32-0.13c0.09,0,0.21,0.02,0.32,0.13c0.11,0.11,0.13,0.23,0.13,0.32c0,0.09-0.02,0.21-0.13,0.32
			l-3.58,3.58c-0.01,0.01-0.02,0.02-0.04,0.04c-0.11,0.12-0.24,0.15-0.33,0.15c-0.09,0-0.22-0.02-0.34-0.14l-4.37-4.37
			C6,10.27,5.99,10,6.15,9.81l3.6-3.6C9.77,6.2,9.78,6.19,9.79,6.17c0.17-0.18,0.45-0.18,0.65-0.01l0.25,0.24
			c0.65,0.63,1.7,0.62,2.33-0.04c0.63-0.65,0.62-1.7-0.04-2.33l-0.26-0.25c-0.01-0.01-0.01-0.01-0.02-0.02
			C11.19,2.35,8.82,2.41,7.41,3.9L3.8,7.51C3.79,7.52,3.77,7.53,3.76,7.54c-1.4,1.49-1.36,3.79,0.08,5.24l4.37,4.37
			c0.71,0.71,1.65,1.1,2.66,1.1c0.02,0,0.04,0,0.06,0c1.02-0.02,1.96-0.43,2.66-1.17l3.56-3.56c0.71-0.71,1.1-1.65,1.1-2.65
			c0-1-0.39-1.94-1.1-2.65C16.46,7.52,15.52,7.13,14.52,7.13z"/>
	</g>
</g>
<g id="Layer_2" class="st70">
</g>
</svg>
